<?xml version="1.0" encoding="utf-8" standalone="no"?>
<!DOCTYPE svg PUBLIC "-//W3C//DTD SVG 1.1//EN"
  "http://www.w3.org/Graphics/SVG/1.1/DTD/svg11.dtd">
<!-- Created with matplotlib (http://matplotlib.org/) -->
<svg height="345.6pt" version="1.1" viewBox="0 0 460.8 345.6" width="460.8pt" xmlns="http://www.w3.org/2000/svg" xmlns:xlink="http://www.w3.org/1999/xlink">
 <defs>
  <style type="text/css">
*{stroke-linecap:butt;stroke-linejoin:round;}
  </style>
 </defs>
 <g id="figure_1">
  <g id="patch_1">
   <path d="M 0 345.6 
L 460.8 345.6 
L 460.8 0 
L 0 0 
z
" style="fill:#ffffff;"/>
  </g>
  <g id="axes_1">
   <g id="patch_2">
    <path d="M 57.6 307.584 
L 414.72 307.584 
L 414.72 41.472 
L 57.6 41.472 
z
" style="fill:#ffffff;"/>
   </g>
   <g id="matplotlib.axis_1">
    <g id="xtick_1">
     <g id="line2d_1">
      <defs>
       <path d="M 0 0 
L 0 3.5 
" id="mb1bece8149" style="stroke:#000000;stroke-width:0.8;"/>
      </defs>
      <g>
       <use style="stroke:#000000;stroke-width:0.8;" x="65.64776" xlink:href="#mb1bece8149" y="307.584"/>
      </g>
     </g>
     <g id="text_1">
      <!-- −6 -->
      <defs>
       <path d="M 10.59375 35.5 
L 73.1875 35.5 
L 73.1875 27.203125 
L 10.59375 27.203125 
z
" id="DejaVuSans-2212"/>
       <path d="M 33.015625 40.375 
Q 26.375 40.375 22.484375 35.828125 
Q 18.609375 31.296875 18.609375 23.390625 
Q 18.609375 15.53125 22.484375 10.953125 
Q 26.375 6.390625 33.015625 6.390625 
Q 39.65625 6.390625 43.53125 10.953125 
Q 47.40625 15.53125 47.40625 23.390625 
Q 47.40625 31.296875 43.53125 35.828125 
Q 39.65625 40.375 33.015625 40.375 
z
M 52.59375 71.296875 
L 52.59375 62.3125 
Q 48.875 64.0625 45.09375 64.984375 
Q 41.3125 65.921875 37.59375 65.921875 
Q 27.828125 65.921875 22.671875 59.328125 
Q 17.53125 52.734375 16.796875 39.40625 
Q 19.671875 43.65625 24.015625 45.921875 
Q 28.375 48.1875 33.59375 48.1875 
Q 44.578125 48.1875 50.953125 41.515625 
Q 57.328125 34.859375 57.328125 23.390625 
Q 57.328125 12.15625 50.6875 5.359375 
Q 44.046875 -1.421875 33.015625 -1.421875 
Q 20.359375 -1.421875 13.671875 8.265625 
Q 6.984375 17.96875 6.984375 36.375 
Q 6.984375 53.65625 15.1875 63.9375 
Q 23.390625 74.21875 37.203125 74.21875 
Q 40.921875 74.21875 44.703125 73.484375 
Q 48.484375 72.75 52.59375 71.296875 
z
" id="DejaVuSans-36"/>
      </defs>
      <g transform="translate(58.276666 322.182437)scale(0.1 -0.1)">
       <use xlink:href="#DejaVuSans-2212"/>
       <use x="83.789062" xlink:href="#DejaVuSans-36"/>
      </g>
     </g>
    </g>
    <g id="xtick_2">
     <g id="line2d_2">
      <g>
       <use style="stroke:#000000;stroke-width:0.8;" x="122.485173" xlink:href="#mb1bece8149" y="307.584"/>
      </g>
     </g>
     <g id="text_2">
      <!-- −4 -->
      <defs>
       <path d="M 37.796875 64.3125 
L 12.890625 25.390625 
L 37.796875 25.390625 
z
M 35.203125 72.90625 
L 47.609375 72.90625 
L 47.609375 25.390625 
L 58.015625 25.390625 
L 58.015625 17.1875 
L 47.609375 17.1875 
L 47.609375 0 
L 37.796875 0 
L 37.796875 17.1875 
L 4.890625 17.1875 
L 4.890625 26.703125 
z
" id="DejaVuSans-34"/>
      </defs>
      <g transform="translate(115.11408 322.182437)scale(0.1 -0.1)">
       <use xlink:href="#DejaVuSans-2212"/>
       <use x="83.789062" xlink:href="#DejaVuSans-34"/>
      </g>
     </g>
    </g>
    <g id="xtick_3">
     <g id="line2d_3">
      <g>
       <use style="stroke:#000000;stroke-width:0.8;" x="179.322587" xlink:href="#mb1bece8149" y="307.584"/>
      </g>
     </g>
     <g id="text_3">
      <!-- −2 -->
      <defs>
       <path d="M 19.1875 8.296875 
L 53.609375 8.296875 
L 53.609375 0 
L 7.328125 0 
L 7.328125 8.296875 
Q 12.9375 14.109375 22.625 23.890625 
Q 32.328125 33.6875 34.8125 36.53125 
Q 39.546875 41.84375 41.421875 45.53125 
Q 43.3125 49.21875 43.3125 52.78125 
Q 43.3125 58.59375 39.234375 62.25 
Q 35.15625 65.921875 28.609375 65.921875 
Q 23.96875 65.921875 18.8125 64.3125 
Q 13.671875 62.703125 7.8125 59.421875 
L 7.8125 69.390625 
Q 13.765625 71.78125 18.9375 73 
Q 24.125 74.21875 28.421875 74.21875 
Q 39.75 74.21875 46.484375 68.546875 
Q 53.21875 62.890625 53.21875 53.421875 
Q 53.21875 48.921875 51.53125 44.890625 
Q 49.859375 40.875 45.40625 35.40625 
Q 44.1875 33.984375 37.640625 27.21875 
Q 31.109375 20.453125 19.1875 8.296875 
z
" id="DejaVuSans-32"/>
      </defs>
      <g transform="translate(171.951493 322.182437)scale(0.1 -0.1)">
       <use xlink:href="#DejaVuSans-2212"/>
       <use x="83.789062" xlink:href="#DejaVuSans-32"/>
      </g>
     </g>
    </g>
    <g id="xtick_4">
     <g id="line2d_4">
      <g>
       <use style="stroke:#000000;stroke-width:0.8;" x="236.16" xlink:href="#mb1bece8149" y="307.584"/>
      </g>
     </g>
     <g id="text_4">
      <!-- 0 -->
      <defs>
       <path d="M 31.78125 66.40625 
Q 24.171875 66.40625 20.328125 58.90625 
Q 16.5 51.421875 16.5 36.375 
Q 16.5 21.390625 20.328125 13.890625 
Q 24.171875 6.390625 31.78125 6.390625 
Q 39.453125 6.390625 43.28125 13.890625 
Q 47.125 21.390625 47.125 36.375 
Q 47.125 51.421875 43.28125 58.90625 
Q 39.453125 66.40625 31.78125 66.40625 
z
M 31.78125 74.21875 
Q 44.046875 74.21875 50.515625 64.515625 
Q 56.984375 54.828125 56.984375 36.375 
Q 56.984375 17.96875 50.515625 8.265625 
Q 44.046875 -1.421875 31.78125 -1.421875 
Q 19.53125 -1.421875 13.0625 8.265625 
Q 6.59375 17.96875 6.59375 36.375 
Q 6.59375 54.828125 13.0625 64.515625 
Q 19.53125 74.21875 31.78125 74.21875 
z
" id="DejaVuSans-30"/>
      </defs>
      <g transform="translate(232.97875 322.182437)scale(0.1 -0.1)">
       <use xlink:href="#DejaVuSans-30"/>
      </g>
     </g>
    </g>
    <g id="xtick_5">
     <g id="line2d_5">
      <g>
       <use style="stroke:#000000;stroke-width:0.8;" x="292.997413" xlink:href="#mb1bece8149" y="307.584"/>
      </g>
     </g>
     <g id="text_5">
      <!-- 2 -->
      <g transform="translate(289.816163 322.182437)scale(0.1 -0.1)">
       <use xlink:href="#DejaVuSans-32"/>
      </g>
     </g>
    </g>
    <g id="xtick_6">
     <g id="line2d_6">
      <g>
       <use style="stroke:#000000;stroke-width:0.8;" x="349.834827" xlink:href="#mb1bece8149" y="307.584"/>
      </g>
     </g>
     <g id="text_6">
      <!-- 4 -->
      <g transform="translate(346.653577 322.182437)scale(0.1 -0.1)">
       <use xlink:href="#DejaVuSans-34"/>
      </g>
     </g>
    </g>
    <g id="xtick_7">
     <g id="line2d_7">
      <g>
       <use style="stroke:#000000;stroke-width:0.8;" x="406.67224" xlink:href="#mb1bece8149" y="307.584"/>
      </g>
     </g>
     <g id="text_7">
      <!-- 6 -->
      <g transform="translate(403.49099 322.182437)scale(0.1 -0.1)">
       <use xlink:href="#DejaVuSans-36"/>
      </g>
     </g>
    </g>
    <g id="text_8">
     <!-- theta -->
     <defs>
      <path d="M 18.3125 70.21875 
L 18.3125 54.6875 
L 36.8125 54.6875 
L 36.8125 47.703125 
L 18.3125 47.703125 
L 18.3125 18.015625 
Q 18.3125 11.328125 20.140625 9.421875 
Q 21.96875 7.515625 27.59375 7.515625 
L 36.8125 7.515625 
L 36.8125 0 
L 27.59375 0 
Q 17.1875 0 13.234375 3.875 
Q 9.28125 7.765625 9.28125 18.015625 
L 9.28125 47.703125 
L 2.6875 47.703125 
L 2.6875 54.6875 
L 9.28125 54.6875 
L 9.28125 70.21875 
z
" id="DejaVuSans-74"/>
      <path d="M 54.890625 33.015625 
L 54.890625 0 
L 45.90625 0 
L 45.90625 32.71875 
Q 45.90625 40.484375 42.875 44.328125 
Q 39.84375 48.1875 33.796875 48.1875 
Q 26.515625 48.1875 22.3125 43.546875 
Q 18.109375 38.921875 18.109375 30.90625 
L 18.109375 0 
L 9.078125 0 
L 9.078125 75.984375 
L 18.109375 75.984375 
L 18.109375 46.1875 
Q 21.34375 51.125 25.703125 53.5625 
Q 30.078125 56 35.796875 56 
Q 45.21875 56 50.046875 50.171875 
Q 54.890625 44.34375 54.890625 33.015625 
z
" id="DejaVuSans-68"/>
      <path d="M 56.203125 29.59375 
L 56.203125 25.203125 
L 14.890625 25.203125 
Q 15.484375 15.921875 20.484375 11.0625 
Q 25.484375 6.203125 34.421875 6.203125 
Q 39.59375 6.203125 44.453125 7.46875 
Q 49.3125 8.734375 54.109375 11.28125 
L 54.109375 2.78125 
Q 49.265625 0.734375 44.1875 -0.34375 
Q 39.109375 -1.421875 33.890625 -1.421875 
Q 20.796875 -1.421875 13.15625 6.1875 
Q 5.515625 13.8125 5.515625 26.8125 
Q 5.515625 40.234375 12.765625 48.109375 
Q 20.015625 56 32.328125 56 
Q 43.359375 56 49.78125 48.890625 
Q 56.203125 41.796875 56.203125 29.59375 
z
M 47.21875 32.234375 
Q 47.125 39.59375 43.09375 43.984375 
Q 39.0625 48.390625 32.421875 48.390625 
Q 24.90625 48.390625 20.390625 44.140625 
Q 15.875 39.890625 15.1875 32.171875 
z
" id="DejaVuSans-65"/>
      <path d="M 34.28125 27.484375 
Q 23.390625 27.484375 19.1875 25 
Q 14.984375 22.515625 14.984375 16.5 
Q 14.984375 11.71875 18.140625 8.90625 
Q 21.296875 6.109375 26.703125 6.109375 
Q 34.1875 6.109375 38.703125 11.40625 
Q 43.21875 16.703125 43.21875 25.484375 
L 43.21875 27.484375 
z
M 52.203125 31.203125 
L 52.203125 0 
L 43.21875 0 
L 43.21875 8.296875 
Q 40.140625 3.328125 35.546875 0.953125 
Q 30.953125 -1.421875 24.3125 -1.421875 
Q 15.921875 -1.421875 10.953125 3.296875 
Q 6 8.015625 6 15.921875 
Q 6 25.140625 12.171875 29.828125 
Q 18.359375 34.515625 30.609375 34.515625 
L 43.21875 34.515625 
L 43.21875 35.40625 
Q 43.21875 41.609375 39.140625 45 
Q 35.0625 48.390625 27.6875 48.390625 
Q 23 48.390625 18.546875 47.265625 
Q 14.109375 46.140625 10.015625 43.890625 
L 10.015625 52.203125 
Q 14.9375 54.109375 19.578125 55.046875 
Q 24.21875 56 28.609375 56 
Q 40.484375 56 46.34375 49.84375 
Q 52.203125 43.703125 52.203125 31.203125 
z
" id="DejaVuSans-61"/>
     </defs>
     <g transform="translate(222.930312 335.860562)scale(0.1 -0.1)">
      <use xlink:href="#DejaVuSans-74"/>
      <use x="39.208984" xlink:href="#DejaVuSans-68"/>
      <use x="102.587891" xlink:href="#DejaVuSans-65"/>
      <use x="164.111328" xlink:href="#DejaVuSans-74"/>
      <use x="203.320312" xlink:href="#DejaVuSans-61"/>
     </g>
    </g>
   </g>
   <g id="matplotlib.axis_2">
    <g id="ytick_1">
     <g id="line2d_8">
      <defs>
       <path d="M 0 0 
L -3.5 0 
" id="m5985a038ed" style="stroke:#000000;stroke-width:0.8;"/>
      </defs>
      <g>
       <use style="stroke:#000000;stroke-width:0.8;" x="57.6" xlink:href="#m5985a038ed" y="276.252771"/>
      </g>
     </g>
     <g id="text_9">
      <!-- −7.5 -->
      <defs>
       <path d="M 8.203125 72.90625 
L 55.078125 72.90625 
L 55.078125 68.703125 
L 28.609375 0 
L 18.3125 0 
L 43.21875 64.59375 
L 8.203125 64.59375 
z
" id="DejaVuSans-37"/>
       <path d="M 10.6875 12.40625 
L 21 12.40625 
L 21 0 
L 10.6875 0 
z
" id="DejaVuSans-2e"/>
       <path d="M 10.796875 72.90625 
L 49.515625 72.90625 
L 49.515625 64.59375 
L 19.828125 64.59375 
L 19.828125 46.734375 
Q 21.96875 47.46875 24.109375 47.828125 
Q 26.265625 48.1875 28.421875 48.1875 
Q 40.625 48.1875 47.75 41.5 
Q 54.890625 34.8125 54.890625 23.390625 
Q 54.890625 11.625 47.5625 5.09375 
Q 40.234375 -1.421875 26.90625 -1.421875 
Q 22.3125 -1.421875 17.546875 -0.640625 
Q 12.796875 0.140625 7.71875 1.703125 
L 7.71875 11.625 
Q 12.109375 9.234375 16.796875 8.0625 
Q 21.484375 6.890625 26.703125 6.890625 
Q 35.15625 6.890625 40.078125 11.328125 
Q 45.015625 15.765625 45.015625 23.390625 
Q 45.015625 31 40.078125 35.4375 
Q 35.15625 39.890625 26.703125 39.890625 
Q 22.75 39.890625 18.8125 39.015625 
Q 14.890625 38.140625 10.796875 36.28125 
z
" id="DejaVuSans-35"/>
      </defs>
      <g transform="translate(26.317187 280.051989)scale(0.1 -0.1)">
       <use xlink:href="#DejaVuSans-2212"/>
       <use x="83.789062" xlink:href="#DejaVuSans-37"/>
       <use x="147.412109" xlink:href="#DejaVuSans-2e"/>
       <use x="179.199219" xlink:href="#DejaVuSans-35"/>
      </g>
     </g>
    </g>
    <g id="ytick_2">
     <g id="line2d_9">
      <g>
       <use style="stroke:#000000;stroke-width:0.8;" x="57.6" xlink:href="#m5985a038ed" y="242.344514"/>
      </g>
     </g>
     <g id="text_10">
      <!-- −5.0 -->
      <g transform="translate(26.317187 246.143733)scale(0.1 -0.1)">
       <use xlink:href="#DejaVuSans-2212"/>
       <use x="83.789062" xlink:href="#DejaVuSans-35"/>
       <use x="147.412109" xlink:href="#DejaVuSans-2e"/>
       <use x="179.199219" xlink:href="#DejaVuSans-30"/>
      </g>
     </g>
    </g>
    <g id="ytick_3">
     <g id="line2d_10">
      <g>
       <use style="stroke:#000000;stroke-width:0.8;" x="57.6" xlink:href="#m5985a038ed" y="208.436257"/>
      </g>
     </g>
     <g id="text_11">
      <!-- −2.5 -->
      <g transform="translate(26.317187 212.235476)scale(0.1 -0.1)">
       <use xlink:href="#DejaVuSans-2212"/>
       <use x="83.789062" xlink:href="#DejaVuSans-32"/>
       <use x="147.412109" xlink:href="#DejaVuSans-2e"/>
       <use x="179.199219" xlink:href="#DejaVuSans-35"/>
      </g>
     </g>
    </g>
    <g id="ytick_4">
     <g id="line2d_11">
      <g>
       <use style="stroke:#000000;stroke-width:0.8;" x="57.6" xlink:href="#m5985a038ed" y="174.528"/>
      </g>
     </g>
     <g id="text_12">
      <!-- 0.0 -->
      <g transform="translate(34.696875 178.327219)scale(0.1 -0.1)">
       <use xlink:href="#DejaVuSans-30"/>
       <use x="63.623047" xlink:href="#DejaVuSans-2e"/>
       <use x="95.410156" xlink:href="#DejaVuSans-30"/>
      </g>
     </g>
    </g>
    <g id="ytick_5">
     <g id="line2d_12">
      <g>
       <use style="stroke:#000000;stroke-width:0.8;" x="57.6" xlink:href="#m5985a038ed" y="140.619743"/>
      </g>
     </g>
     <g id="text_13">
      <!-- 2.5 -->
      <g transform="translate(34.696875 144.418962)scale(0.1 -0.1)">
       <use xlink:href="#DejaVuSans-32"/>
       <use x="63.623047" xlink:href="#DejaVuSans-2e"/>
       <use x="95.410156" xlink:href="#DejaVuSans-35"/>
      </g>
     </g>
    </g>
    <g id="ytick_6">
     <g id="line2d_13">
      <g>
       <use style="stroke:#000000;stroke-width:0.8;" x="57.6" xlink:href="#m5985a038ed" y="106.711486"/>
      </g>
     </g>
     <g id="text_14">
      <!-- 5.0 -->
      <g transform="translate(34.696875 110.510705)scale(0.1 -0.1)">
       <use xlink:href="#DejaVuSans-35"/>
       <use x="63.623047" xlink:href="#DejaVuSans-2e"/>
       <use x="95.410156" xlink:href="#DejaVuSans-30"/>
      </g>
     </g>
    </g>
    <g id="ytick_7">
     <g id="line2d_14">
      <g>
       <use style="stroke:#000000;stroke-width:0.8;" x="57.6" xlink:href="#m5985a038ed" y="72.803229"/>
      </g>
     </g>
     <g id="text_15">
      <!-- 7.5 -->
      <g transform="translate(34.696875 76.602448)scale(0.1 -0.1)">
       <use xlink:href="#DejaVuSans-37"/>
       <use x="63.623047" xlink:href="#DejaVuSans-2e"/>
       <use x="95.410156" xlink:href="#DejaVuSans-35"/>
      </g>
     </g>
    </g>
    <g id="text_16">
     <!-- thetadot -->
     <defs>
      <path d="M 45.40625 46.390625 
L 45.40625 75.984375 
L 54.390625 75.984375 
L 54.390625 0 
L 45.40625 0 
L 45.40625 8.203125 
Q 42.578125 3.328125 38.25 0.953125 
Q 33.9375 -1.421875 27.875 -1.421875 
Q 17.96875 -1.421875 11.734375 6.484375 
Q 5.515625 14.40625 5.515625 27.296875 
Q 5.515625 40.1875 11.734375 48.09375 
Q 17.96875 56 27.875 56 
Q 33.9375 56 38.25 53.625 
Q 42.578125 51.265625 45.40625 46.390625 
z
M 14.796875 27.296875 
Q 14.796875 17.390625 18.875 11.75 
Q 22.953125 6.109375 30.078125 6.109375 
Q 37.203125 6.109375 41.296875 11.75 
Q 45.40625 17.390625 45.40625 27.296875 
Q 45.40625 37.203125 41.296875 42.84375 
Q 37.203125 48.484375 30.078125 48.484375 
Q 22.953125 48.484375 18.875 42.84375 
Q 14.796875 37.203125 14.796875 27.296875 
z
" id="DejaVuSans-64"/>
      <path d="M 30.609375 48.390625 
Q 23.390625 48.390625 19.1875 42.75 
Q 14.984375 37.109375 14.984375 27.296875 
Q 14.984375 17.484375 19.15625 11.84375 
Q 23.34375 6.203125 30.609375 6.203125 
Q 37.796875 6.203125 41.984375 11.859375 
Q 46.1875 17.53125 46.1875 27.296875 
Q 46.1875 37.015625 41.984375 42.703125 
Q 37.796875 48.390625 30.609375 48.390625 
z
M 30.609375 56 
Q 42.328125 56 49.015625 48.375 
Q 55.71875 40.765625 55.71875 27.296875 
Q 55.71875 13.875 49.015625 6.21875 
Q 42.328125 -1.421875 30.609375 -1.421875 
Q 18.84375 -1.421875 12.171875 6.21875 
Q 5.515625 13.875 5.515625 27.296875 
Q 5.515625 40.765625 12.171875 48.375 
Q 18.84375 56 30.609375 56 
z
" id="DejaVuSans-6f"/>
     </defs>
     <g transform="translate(20.2375 195.951437)rotate(-90)scale(0.1 -0.1)">
      <use xlink:href="#DejaVuSans-74"/>
      <use x="39.208984" xlink:href="#DejaVuSans-68"/>
      <use x="102.587891" xlink:href="#DejaVuSans-65"/>
      <use x="164.111328" xlink:href="#DejaVuSans-74"/>
      <use x="203.320312" xlink:href="#DejaVuSans-61"/>
      <use x="264.599609" xlink:href="#DejaVuSans-64"/>
      <use x="328.076172" xlink:href="#DejaVuSans-6f"/>
      <use x="389.257812" xlink:href="#DejaVuSans-74"/>
     </g>
    </g>
   </g>
   <g id="LineCollection_1">
    <path clip-path="url(#p2a96ef0c2f)" d="M 414.72 242.156628 
L 412.460574 241.94304 
L 412.3392 241.931268 
L 409.9584 241.33145 
L 407.5776 240.367337 
L 407.220462 240.16896 
L 405.1968 239.014923 
L 404.336927 238.39488 
L 402.816 237.268099 
L 402.089677 236.6208 
L 400.4352 235.104739 
L 400.192978 234.84672 
L 398.574766 233.07264 
L 398.0544 232.485029 
L 397.127518 231.29856 
L 395.783184 229.52448 
L 395.6736 229.375212 
L 394.600512 227.7504 
L 393.466341 225.97632 
L 393.2928 225.695509 
L 392.449329 224.20224 
L 391.481679 222.42816 
L 390.912 221.345084 
L 390.57536 220.65408 
L 389.743154 218.88 
L 388.942938 217.10592 
L 388.5312 216.154965 
L 388.197316 215.33184 
L 387.507818 213.55776 
L 386.848389 211.78368 
L 386.219044 210.0096 
L 386.1504 209.806344 
L 385.648388 208.23552 
L 385.109958 206.46144 
L 384.600072 204.68736 
L 384.118742 202.91328 
L 383.7696 201.545169 
L 383.67067 201.1392 
L 383.265699 199.36512 
L 382.888053 197.59104 
L 382.537739 195.81696 
L 382.21477 194.04288 
L 381.919154 192.2688 
L 381.650903 190.49472 
L 381.410027 188.72064 
L 381.3888 188.544232 
L 381.203716 186.94656 
L 381.02458 185.17248 
L 380.871833 183.3984 
L 380.745483 181.62432 
L 380.645538 179.85024 
L 380.572007 178.07616 
L 380.524896 176.30208 
L 380.504213 174.528 
L 380.509966 172.75392 
L 380.542164 170.97984 
L 380.600813 169.20576 
L 380.685922 167.43168 
L 380.797498 165.6576 
L 380.935549 163.88352 
L 381.100084 162.10944 
L 381.291109 160.33536 
L 381.3888 159.538564 
L 381.513334 158.56128 
L 381.76695 156.7872 
L 382.048135 155.01312 
L 382.356901 153.23904 
L 382.693256 151.46496 
L 383.057212 149.69088 
L 383.448778 147.9168 
L 383.7696 146.558983 
L 383.87272 146.14272 
L 384.341148 144.36864 
L 384.838583 142.59456 
L 385.365038 140.82048 
L 385.920525 139.0464 
L 386.1504 138.348658 
L 386.525732 137.27232 
L 387.175125 135.49824 
L 387.855329 133.72416 
L 388.5312 132.037796 
L 388.568804 131.95008 
L 389.362229 130.176 
L 390.18872 128.40192 
L 390.912 126.909096 
L 391.059517 126.62784 
L 392.025721 124.85376 
L 393.027867 123.07968 
L 393.2928 122.626836 
L 394.141394 121.3056 
L 395.320371 119.53152 
L 395.6736 119.017179 
L 396.63948 117.75744 
L 398.04405 115.98336 
L 398.0544 115.970685 
L 399.694114 114.20928 
L 400.4352 113.43687 
L 401.561135 112.4352 
L 402.816 111.351102 
L 403.787459 110.66112 
L 405.1968 109.688278 
L 406.689926 108.88704 
L 407.5776 108.423736 
L 409.9584 107.54441 
L 411.969085 107.11296 
L 412.3392 107.035657 
L 414.72 106.899372 
" style="fill:none;stroke:#440154;stroke-width:1.5;"/>
    <path clip-path="url(#p2a96ef0c2f)" d="M 57.6 106.899372 
L 59.859426 107.11296 
L 59.9808 107.124732 
L 62.3616 107.72455 
L 64.7424 108.688663 
L 65.099538 108.88704 
L 67.1232 110.041077 
L 67.983073 110.66112 
L 69.504 111.787901 
L 70.230323 112.4352 
L 71.8848 113.951261 
L 72.127022 114.20928 
L 73.745234 115.98336 
L 74.2656 116.570971 
L 75.192482 117.75744 
L 76.536816 119.53152 
L 76.6464 119.680788 
L 77.719488 121.3056 
L 78.853659 123.07968 
L 79.0272 123.360491 
L 79.870671 124.85376 
L 80.838321 126.62784 
L 81.408 127.710916 
L 81.74464 128.40192 
L 82.576846 130.176 
L 83.377062 131.95008 
L 83.7888 132.901035 
L 84.122684 133.72416 
L 84.812182 135.49824 
L 85.471611 137.27232 
L 86.100956 139.0464 
L 86.1696 139.249656 
L 86.671612 140.82048 
L 87.210042 142.59456 
L 87.719928 144.36864 
L 88.201258 146.14272 
L 88.5504 147.510831 
L 88.64933 147.9168 
L 89.054301 149.69088 
L 89.431947 151.46496 
L 89.782261 153.23904 
L 90.10523 155.01312 
L 90.400846 156.7872 
L 90.669097 158.56128 
L 90.909973 160.33536 
L 90.9312 160.511768 
L 91.116284 162.10944 
L 91.29542 163.88352 
L 91.448167 165.6576 
L 91.574517 167.43168 
L 91.674462 169.20576 
L 91.747993 170.97984 
L 91.795104 172.75392 
L 91.815787 174.528 
L 91.810034 176.30208 
L 91.777836 178.07616 
L 91.719187 179.85024 
L 91.634078 181.62432 
L 91.522502 183.3984 
L 91.384451 185.17248 
L 91.219916 186.94656 
L 91.028891 188.72064 
L 90.9312 189.517436 
L 90.806666 190.49472 
L 90.55305 192.2688 
L 90.271865 194.04288 
L 89.963099 195.81696 
L 89.626744 197.59104 
L 89.262788 199.36512 
L 88.871222 201.1392 
L 88.5504 202.497017 
L 88.44728 202.91328 
L 87.978852 204.68736 
L 87.481417 206.46144 
L 86.954962 208.23552 
L 86.399475 210.0096 
L 86.1696 210.707342 
L 85.794268 211.78368 
L 85.144875 213.55776 
L 84.464671 215.33184 
L 83.7888 217.018204 
L 83.751196 217.10592 
L 82.957771 218.88 
L 82.13128 220.65408 
L 81.408 222.146904 
L 81.260483 222.42816 
L 80.294279 224.20224 
L 79.292133 225.97632 
L 79.0272 226.429164 
L 78.178606 227.7504 
L 76.999629 229.52448 
L 76.6464 230.038821 
L 75.68052 231.29856 
L 74.27595 233.07264 
L 74.2656 233.085315 
L 72.625886 234.84672 
L 71.8848 235.61913 
L 70.758865 236.6208 
L 69.504 237.704898 
L 68.532541 238.39488 
L 67.1232 239.367722 
L 65.630074 240.16896 
L 64.7424 240.632264 
L 62.3616 241.51159 
L 60.350915 241.94304 
L 59.9808 242.020343 
L 57.6 242.156628 
" style="fill:none;stroke:#440154;stroke-width:1.5;"/>
    <path clip-path="url(#p2a96ef0c2f)" d="M 236.16 242.156628 
L 233.7792 241.931268 
L 231.3984 241.33145 
L 228.660462 240.16896 
L 226.6368 239.014923 
L 224.256 237.268099 
L 221.632978 234.84672 
L 219.4944 232.485029 
L 217.1136 229.375212 
L 214.7328 225.695509 
L 212.352 221.345084 
L 210.382938 217.10592 
L 208.947818 213.55776 
L 207.5904 209.806344 
L 206.040072 204.68736 
L 204.705699 199.36512 
L 203.65477 194.04288 
L 202.8288 188.544232 
L 202.311833 183.3984 
L 202.012007 178.07616 
L 201.949966 172.75392 
L 202.125922 167.43168 
L 202.540084 162.10944 
L 203.20695 156.7872 
L 204.133256 151.46496 
L 205.31272 146.14272 
L 206.805038 140.82048 
L 207.965732 137.27232 
L 210.008804 131.95008 
L 212.499517 126.62784 
L 214.7328 122.626836 
L 217.1136 119.017179 
L 219.4944 115.970685 
L 221.8752 113.43687 
L 224.256 111.351102 
L 226.6368 109.688278 
L 229.0176 108.423736 
L 231.3984 107.54441 
L 233.7792 107.035657 
L 236.16 106.899372 
L 238.5408 107.124732 
L 240.9216 107.72455 
L 243.659538 108.88704 
L 245.6832 110.041077 
L 248.064 111.787901 
L 250.687022 114.20928 
L 252.8256 116.570971 
L 255.2064 119.680788 
L 257.5872 123.360491 
L 259.968 127.710916 
L 261.937062 131.95008 
L 263.372182 135.49824 
L 264.7296 139.249656 
L 266.279928 144.36864 
L 267.614301 149.69088 
L 268.66523 155.01312 
L 269.4912 160.511768 
L 270.008167 165.6576 
L 270.307993 170.97984 
L 270.370034 176.30208 
L 270.194078 181.62432 
L 269.779916 186.94656 
L 269.11305 192.2688 
L 268.186744 197.59104 
L 267.00728 202.91328 
L 265.514962 208.23552 
L 264.354268 211.78368 
L 262.311196 217.10592 
L 259.820483 222.42816 
L 257.5872 226.429164 
L 255.2064 230.038821 
L 252.8256 233.085315 
L 250.4448 235.61913 
L 248.064 237.704898 
L 245.6832 239.367722 
L 243.3024 240.632264 
L 240.9216 241.51159 
L 238.5408 242.020343 
L 236.16 242.156628 
L 236.16 242.156628 
" style="fill:none;stroke:#440154;stroke-width:1.5;"/>
   </g>
   <g id="LineCollection_2">
    <path clip-path="url(#p2a96ef0c2f)" d="M 414.72 270.171489 
L 412.3392 269.996244 
L 409.9584 269.562457 
L 406.77006 268.55424 
L 405.1968 267.921309 
L 402.816 266.712785 
L 400.115762 265.00608 
L 397.739687 263.232 
L 395.648238 261.45792 
L 392.099266 257.90976 
L 390.508077 256.13568 
L 387.652965 252.58752 
L 385.099459 249.03936 
L 382.784657 245.4912 
L 380.66477 241.94304 
L 377.793805 236.6208 
L 375.23105 231.29856 
L 372.937897 225.97632 
L 370.888637 220.65408 
L 369.068326 215.33184 
L 367.46945 210.0096 
L 366.084632 204.68736 
L 364.919202 199.36512 
L 363.965446 194.04288 
L 363.233581 188.72064 
L 362.726083 183.3984 
L 362.44283 178.07616 
L 362.383699 172.75392 
L 362.548569 167.43168 
L 362.937317 162.10944 
L 363.549821 156.7872 
L 364.38596 151.46496 
L 365.436642 146.14272 
L 366.703885 140.82048 
L 368.186247 135.49824 
L 369.887034 130.176 
L 371.8656 124.712603 
L 374.2464 118.904386 
L 376.6272 113.730227 
L 379.108948 108.88704 
L 382.182221 103.5648 
L 384.46377 100.01664 
L 386.987231 96.46848 
L 389.819589 92.92032 
L 391.375894 91.14624 
L 393.2928 89.131523 
L 395.6736 86.91098 
L 398.0544 84.970246 
L 400.4352 83.304683 
L 402.816 81.908443 
L 405.953796 80.50176 
L 407.5776 79.916862 
L 409.9584 79.31399 
L 412.3392 78.969295 
L 414.72 78.884511 
L 414.72 78.884511 
" style="fill:none;stroke:#443983;stroke-width:1.5;"/>
    <path clip-path="url(#p2a96ef0c2f)" d="M 57.6 78.884511 
L 59.9808 79.059756 
L 62.3616 79.493543 
L 65.54994 80.50176 
L 67.1232 81.134691 
L 69.504 82.343215 
L 72.204238 84.04992 
L 74.580313 85.824 
L 76.671762 87.59808 
L 80.220734 91.14624 
L 81.811923 92.92032 
L 84.667035 96.46848 
L 87.220541 100.01664 
L 89.535343 103.5648 
L 91.65523 107.11296 
L 94.526195 112.4352 
L 97.08895 117.75744 
L 99.382103 123.07968 
L 101.431363 128.40192 
L 103.251674 133.72416 
L 104.85055 139.0464 
L 106.235368 144.36864 
L 107.400798 149.69088 
L 108.354554 155.01312 
L 109.086419 160.33536 
L 109.593917 165.6576 
L 109.87717 170.97984 
L 109.936301 176.30208 
L 109.771431 181.62432 
L 109.382683 186.94656 
L 108.770179 192.2688 
L 107.93404 197.59104 
L 106.883358 202.91328 
L 105.616115 208.23552 
L 104.133753 213.55776 
L 102.432966 218.88 
L 100.4544 224.343397 
L 98.0736 230.151614 
L 95.6928 235.325773 
L 93.211052 240.16896 
L 90.137779 245.4912 
L 87.85623 249.03936 
L 85.332769 252.58752 
L 82.500411 256.13568 
L 80.944106 257.90976 
L 79.0272 259.924477 
L 76.6464 262.14502 
L 74.2656 264.085754 
L 71.8848 265.751317 
L 69.504 267.147557 
L 66.366204 268.55424 
L 64.7424 269.139138 
L 62.3616 269.74201 
L 59.9808 270.086705 
L 57.6 270.171489 
L 57.6 270.171489 
" style="fill:none;stroke:#443983;stroke-width:1.5;"/>
    <path clip-path="url(#p2a96ef0c2f)" d="M 229.0176 268.873201 
L 226.6368 267.921309 
L 224.256 266.712785 
L 221.555762 265.00608 
L 219.179687 263.232 
L 217.088238 261.45792 
L 213.539266 257.90976 
L 211.948077 256.13568 
L 209.092965 252.58752 
L 206.539459 249.03936 
L 204.224657 245.4912 
L 202.10477 241.94304 
L 199.233805 236.6208 
L 196.67105 231.29856 
L 194.377897 225.97632 
L 192.328637 220.65408 
L 190.508326 215.33184 
L 188.90945 210.0096 
L 187.524632 204.68736 
L 186.359202 199.36512 
L 185.405446 194.04288 
L 184.673581 188.72064 
L 184.166083 183.3984 
L 183.88283 178.07616 
L 183.823699 172.75392 
L 183.988569 167.43168 
L 184.377317 162.10944 
L 184.989821 156.7872 
L 185.82596 151.46496 
L 186.876642 146.14272 
L 188.143885 140.82048 
L 189.626247 135.49824 
L 191.327034 130.176 
L 193.3056 124.712603 
L 195.6864 118.904386 
L 198.0672 113.730227 
L 200.548948 108.88704 
L 203.622221 103.5648 
L 205.90377 100.01664 
L 208.427231 96.46848 
L 211.259589 92.92032 
L 212.815894 91.14624 
L 214.7328 89.131523 
L 217.1136 86.91098 
L 219.4944 84.970246 
L 221.8752 83.304683 
L 224.256 81.908443 
L 227.393796 80.50176 
L 229.0176 79.916862 
L 231.3984 79.31399 
L 233.7792 78.969295 
L 236.16 78.884511 
L 238.5408 79.059756 
L 240.9216 79.493543 
L 244.10994 80.50176 
L 245.6832 81.134691 
L 248.064 82.343215 
L 250.764238 84.04992 
L 253.140313 85.824 
L 255.231762 87.59808 
L 258.780734 91.14624 
L 260.371923 92.92032 
L 263.227035 96.46848 
L 265.780541 100.01664 
L 268.095343 103.5648 
L 270.21523 107.11296 
L 273.086195 112.4352 
L 275.64895 117.75744 
L 277.942103 123.07968 
L 279.991363 128.40192 
L 281.811674 133.72416 
L 283.41055 139.0464 
L 284.795368 144.36864 
L 285.960798 149.69088 
L 286.914554 155.01312 
L 287.646419 160.33536 
L 288.153917 165.6576 
L 288.43717 170.97984 
L 288.496301 176.30208 
L 288.331431 181.62432 
L 287.942683 186.94656 
L 287.330179 192.2688 
L 286.49404 197.59104 
L 285.443358 202.91328 
L 284.176115 208.23552 
L 282.693753 213.55776 
L 280.992966 218.88 
L 279.0144 224.343397 
L 276.6336 230.151614 
L 274.2528 235.325773 
L 271.771052 240.16896 
L 268.697779 245.4912 
L 266.41623 249.03936 
L 263.892769 252.58752 
L 261.060411 256.13568 
L 259.504106 257.90976 
L 257.5872 259.924477 
L 255.2064 262.14502 
L 252.8256 264.085754 
L 250.4448 265.751317 
L 248.064 267.147557 
L 244.926204 268.55424 
L 243.3024 269.139138 
L 240.9216 269.74201 
L 238.5408 270.086705 
L 236.16 270.171489 
L 233.7792 269.996244 
L 231.3984 269.562457 
L 229.0176 268.873201 
L 229.0176 268.873201 
" style="fill:none;stroke:#443983;stroke-width:1.5;"/>
   </g>
   <g id="LineCollection_3">
    <path clip-path="url(#p2a96ef0c2f)" d="M 414.72 291.668125 
L 412.3392 291.517438 
L 409.9584 291.154802 
L 407.5776 290.583511 
L 405.1968 289.806806 
L 402.816 288.815753 
L 400.4352 287.621285 
L 398.0544 286.222117 
L 395.546616 284.52096 
L 393.22031 282.74688 
L 389.186062 279.19872 
L 387.376363 277.42464 
L 384.044187 273.87648 
L 381.3888 270.770651 
L 378.249079 266.78016 
L 374.2464 261.228994 
L 370.874261 256.13568 
L 367.104 249.995225 
L 364.500337 245.4912 
L 360.643186 238.39488 
L 356.182857 229.52448 
L 352.091593 220.65408 
L 349.081465 213.55776 
L 346.343447 206.46144 
L 343.92306 199.36512 
L 341.9049 192.2688 
L 340.770475 186.94656 
L 340.164697 183.3984 
L 339.756675 179.85024 
L 339.545866 176.30208 
L 339.531727 172.75392 
L 339.713719 169.20576 
L 340.091304 165.6576 
L 340.663946 162.10944 
L 342.20424 155.01312 
L 343.727943 149.69088 
L 345.474329 144.36864 
L 349.478274 133.72416 
L 353.283491 124.85376 
L 356.578929 117.75744 
L 361.038779 108.88704 
L 364.906701 101.79072 
L 368.008578 96.46848 
L 371.8656 90.314781 
L 374.903457 85.824 
L 378.816484 80.50176 
L 381.676962 76.9536 
L 384.809169 73.40544 
L 388.283099 69.85728 
L 390.218791 68.0832 
L 392.314386 66.30912 
L 394.625319 64.53504 
L 397.23974 62.76096 
L 398.0544 62.241744 
L 400.4352 60.915098 
L 402.816 59.803001 
L 405.1968 58.897619 
L 407.5776 58.205358 
L 409.9584 57.721249 
L 412.702692 57.43872 
L 414.72 57.387875 
L 414.72 57.387875 
" style="fill:none;stroke:#31688e;stroke-width:1.5;"/>
    <path clip-path="url(#p2a96ef0c2f)" d="M 57.6 57.387875 
L 59.9808 57.538562 
L 62.3616 57.901198 
L 64.7424 58.472489 
L 67.1232 59.249194 
L 69.504 60.240247 
L 71.8848 61.434715 
L 74.2656 62.833883 
L 76.773384 64.53504 
L 79.09969 66.30912 
L 83.133938 69.85728 
L 84.943637 71.63136 
L 88.275813 75.17952 
L 90.9312 78.285349 
L 94.070921 82.27584 
L 98.0736 87.827006 
L 101.445739 92.92032 
L 105.216 99.060775 
L 107.819663 103.5648 
L 111.676814 110.66112 
L 116.137143 119.53152 
L 120.228407 128.40192 
L 123.238535 135.49824 
L 125.976553 142.59456 
L 128.39694 149.69088 
L 130.4151 156.7872 
L 131.549525 162.10944 
L 132.155303 165.6576 
L 132.563325 169.20576 
L 132.774134 172.75392 
L 132.788273 176.30208 
L 132.606281 179.85024 
L 132.228696 183.3984 
L 131.656054 186.94656 
L 130.11576 194.04288 
L 128.592057 199.36512 
L 126.845671 204.68736 
L 122.841726 215.33184 
L 119.036509 224.20224 
L 115.741071 231.29856 
L 111.281221 240.16896 
L 107.413299 247.26528 
L 104.311422 252.58752 
L 100.4544 258.741219 
L 97.416543 263.232 
L 93.503516 268.55424 
L 90.643038 272.1024 
L 87.510831 275.65056 
L 84.036901 279.19872 
L 82.101209 280.9728 
L 80.005614 282.74688 
L 77.694681 284.52096 
L 75.08026 286.29504 
L 74.2656 286.814256 
L 71.8848 288.140902 
L 69.504 289.252999 
L 67.1232 290.158381 
L 64.7424 290.850642 
L 62.3616 291.334751 
L 59.617308 291.61728 
L 57.6 291.668125 
L 57.6 291.668125 
" style="fill:none;stroke:#31688e;stroke-width:1.5;"/>
    <path clip-path="url(#p2a96ef0c2f)" d="M 236.16 291.668125 
L 233.7792 291.517438 
L 231.3984 291.154802 
L 229.0176 290.583511 
L 226.6368 289.806806 
L 224.256 288.815753 
L 221.8752 287.621285 
L 219.4944 286.222117 
L 216.986616 284.52096 
L 214.66031 282.74688 
L 210.626062 279.19872 
L 208.816363 277.42464 
L 205.484187 273.87648 
L 202.8288 270.770651 
L 199.689079 266.78016 
L 195.6864 261.228994 
L 192.314261 256.13568 
L 188.544 249.995225 
L 185.940337 245.4912 
L 182.083186 238.39488 
L 177.622857 229.52448 
L 173.531593 220.65408 
L 170.521465 213.55776 
L 167.783447 206.46144 
L 165.36306 199.36512 
L 163.3449 192.2688 
L 162.210475 186.94656 
L 161.604697 183.3984 
L 161.196675 179.85024 
L 160.985866 176.30208 
L 160.971727 172.75392 
L 161.153719 169.20576 
L 161.531304 165.6576 
L 162.103946 162.10944 
L 163.64424 155.01312 
L 165.167943 149.69088 
L 166.914329 144.36864 
L 170.918274 133.72416 
L 174.723491 124.85376 
L 178.018929 117.75744 
L 182.478779 108.88704 
L 186.346701 101.79072 
L 189.448578 96.46848 
L 193.3056 90.314781 
L 196.343457 85.824 
L 200.256484 80.50176 
L 203.116962 76.9536 
L 206.249169 73.40544 
L 209.723099 69.85728 
L 211.658791 68.0832 
L 213.754386 66.30912 
L 216.065319 64.53504 
L 218.67974 62.76096 
L 219.4944 62.241744 
L 221.8752 60.915098 
L 224.256 59.803001 
L 226.6368 58.897619 
L 229.0176 58.205358 
L 231.3984 57.721249 
L 234.142692 57.43872 
L 236.971212 57.43872 
L 238.5408 57.538562 
L 240.9216 57.901198 
L 243.3024 58.472489 
L 245.6832 59.249194 
L 248.064 60.240247 
L 250.4448 61.434715 
L 252.8256 62.833883 
L 255.333384 64.53504 
L 257.65969 66.30912 
L 261.693938 69.85728 
L 263.503637 71.63136 
L 266.835813 75.17952 
L 269.4912 78.285349 
L 272.630921 82.27584 
L 276.6336 87.827006 
L 280.005739 92.92032 
L 283.776 99.060775 
L 286.379663 103.5648 
L 290.236814 110.66112 
L 294.697143 119.53152 
L 298.788407 128.40192 
L 301.798535 135.49824 
L 304.536553 142.59456 
L 306.95694 149.69088 
L 308.9751 156.7872 
L 310.109525 162.10944 
L 310.715303 165.6576 
L 311.123325 169.20576 
L 311.334134 172.75392 
L 311.348273 176.30208 
L 311.166281 179.85024 
L 310.788696 183.3984 
L 310.216054 186.94656 
L 308.67576 194.04288 
L 307.152057 199.36512 
L 305.405671 204.68736 
L 301.401726 215.33184 
L 297.596509 224.20224 
L 294.301071 231.29856 
L 289.841221 240.16896 
L 285.973299 247.26528 
L 282.871422 252.58752 
L 279.0144 258.741219 
L 275.976543 263.232 
L 272.063516 268.55424 
L 269.203038 272.1024 
L 266.070831 275.65056 
L 262.596901 279.19872 
L 260.661209 280.9728 
L 258.565614 282.74688 
L 256.254681 284.52096 
L 253.64026 286.29504 
L 252.8256 286.814256 
L 250.4448 288.140902 
L 248.064 289.252999 
L 245.6832 290.158381 
L 243.3024 290.850642 
L 240.9216 291.334751 
L 238.177308 291.61728 
L 236.16 291.668125 
L 236.16 291.668125 
" style="fill:none;stroke:#31688e;stroke-width:1.5;"/>
   </g>
   <g id="LineCollection_4">
    <path clip-path="url(#p2a96ef0c2f)" d="M 225.043701 307.584 
L 224.256 307.298186 
L 220.972351 305.80992 
L 217.722803 304.03584 
L 217.1136 303.68012 
L 214.7328 302.13682 
L 212.352 300.429746 
L 208.052772 296.93952 
L 205.2096 294.374681 
L 202.383722 291.61728 
L 198.0672 287.057413 
L 194.288221 282.74688 
L 189.892276 277.42464 
L 183.7824 269.605142 
L 174.858136 257.90976 
L 171.8784 254.078639 
L 167.1168 248.307183 
L 162.3552 243.191868 
L 158.954568 240.16896 
L 157.5936 239.05699 
L 155.2128 237.464519 
L 152.832 236.244273 
L 150.4512 235.423121 
L 148.0704 235.03278 
L 145.6896 235.077267 
L 143.3088 235.557227 
L 140.659572 236.6208 
L 138.5472 237.775571 
L 135.330294 240.16896 
L 133.293042 241.94304 
L 131.4048 243.75268 
L 128.178618 247.26528 
L 125.170174 250.81344 
L 121.8816 254.904839 
L 104.723023 277.42464 
L 100.379886 282.74688 
L 95.6928 288.106429 
L 90.9312 293.058248 
L 88.5504 295.328845 
L 84.647671 298.7136 
L 81.408 301.225454 
L 79.0272 302.870245 
L 76.6464 304.347591 
L 73.938321 305.80992 
L 71.8848 306.780965 
L 69.886883 307.584 
L 69.886883 307.584 
" style="fill:none;stroke:#21918c;stroke-width:1.5;"/>
    <path clip-path="url(#p2a96ef0c2f)" d="M 403.603701 307.584 
L 402.816 307.298186 
L 399.532351 305.80992 
L 396.282803 304.03584 
L 395.6736 303.68012 
L 393.2928 302.13682 
L 390.912 300.429746 
L 386.612772 296.93952 
L 383.7696 294.374681 
L 380.943722 291.61728 
L 376.6272 287.057413 
L 372.848221 282.74688 
L 368.452276 277.42464 
L 362.3424 269.605142 
L 353.418136 257.90976 
L 350.4384 254.078639 
L 345.6768 248.307183 
L 340.9152 243.191868 
L 337.514568 240.16896 
L 336.1536 239.05699 
L 333.7728 237.464519 
L 331.392 236.244273 
L 329.0112 235.423121 
L 326.6304 235.03278 
L 324.2496 235.077267 
L 321.8688 235.557227 
L 319.219572 236.6208 
L 317.1072 237.775571 
L 313.890294 240.16896 
L 311.853042 241.94304 
L 309.9648 243.75268 
L 306.738618 247.26528 
L 303.730174 250.81344 
L 300.4416 254.904839 
L 283.283023 277.42464 
L 278.939886 282.74688 
L 274.2528 288.106429 
L 269.4912 293.058248 
L 267.1104 295.328845 
L 263.207671 298.7136 
L 259.968 301.225454 
L 257.5872 302.870245 
L 255.2064 304.347591 
L 252.498321 305.80992 
L 250.4448 306.780965 
L 248.446883 307.584 
L 248.446883 307.584 
" style="fill:none;stroke:#21918c;stroke-width:1.5;"/>
    <path clip-path="url(#p2a96ef0c2f)" d="M 68.716299 41.472 
L 69.504 41.757814 
L 72.787649 43.24608 
L 76.037197 45.02016 
L 76.6464 45.37588 
L 79.0272 46.91918 
L 81.408 48.626254 
L 85.707228 52.11648 
L 88.5504 54.681319 
L 91.376278 57.43872 
L 95.6928 61.998587 
L 99.471779 66.30912 
L 103.867724 71.63136 
L 109.9776 79.450858 
L 118.901864 91.14624 
L 121.8816 94.977361 
L 126.6432 100.748817 
L 131.4048 105.864132 
L 134.805432 108.88704 
L 136.1664 109.99901 
L 138.5472 111.591481 
L 140.928 112.811727 
L 143.3088 113.632879 
L 145.6896 114.02322 
L 148.0704 113.978733 
L 150.4512 113.498773 
L 153.100428 112.4352 
L 155.2128 111.280429 
L 158.429706 108.88704 
L 160.466958 107.11296 
L 162.3552 105.30332 
L 165.581382 101.79072 
L 168.589826 98.24256 
L 171.8784 94.151161 
L 189.036977 71.63136 
L 193.380114 66.30912 
L 198.0672 60.949571 
L 202.8288 55.997752 
L 205.2096 53.727155 
L 209.112329 50.3424 
L 212.352 47.830546 
L 214.7328 46.185755 
L 217.1136 44.708409 
L 219.821679 43.24608 
L 221.8752 42.275035 
L 223.873117 41.472 
L 223.873117 41.472 
" style="fill:none;stroke:#21918c;stroke-width:1.5;"/>
    <path clip-path="url(#p2a96ef0c2f)" d="M 247.276299 41.472 
L 248.064 41.757814 
L 251.347649 43.24608 
L 254.597197 45.02016 
L 255.2064 45.37588 
L 257.5872 46.91918 
L 259.968 48.626254 
L 264.267228 52.11648 
L 267.1104 54.681319 
L 269.936278 57.43872 
L 274.2528 61.998587 
L 278.031779 66.30912 
L 282.427724 71.63136 
L 288.5376 79.450858 
L 297.461864 91.14624 
L 300.4416 94.977361 
L 305.2032 100.748817 
L 309.9648 105.864132 
L 313.365432 108.88704 
L 314.7264 109.99901 
L 317.1072 111.591481 
L 319.488 112.811727 
L 321.8688 113.632879 
L 324.2496 114.02322 
L 326.6304 113.978733 
L 329.0112 113.498773 
L 331.660428 112.4352 
L 333.7728 111.280429 
L 336.989706 108.88704 
L 339.026958 107.11296 
L 340.9152 105.30332 
L 344.141382 101.79072 
L 347.149826 98.24256 
L 350.4384 94.151161 
L 367.596977 71.63136 
L 371.940114 66.30912 
L 376.6272 60.949571 
L 381.3888 55.997752 
L 383.7696 53.727155 
L 387.672329 50.3424 
L 390.912 47.830546 
L 393.2928 46.185755 
L 395.6736 44.708409 
L 398.381679 43.24608 
L 400.4352 42.275035 
L 402.433117 41.472 
L 402.433117 41.472 
" style="fill:none;stroke:#21918c;stroke-width:1.5;"/>
   </g>
   <g id="LineCollection_5">
    <path clip-path="url(#p2a96ef0c2f)" d="M 200.043683 307.584 
L 198.135887 305.80992 
L 198.0672 305.745187 
L 196.291231 304.03584 
L 195.6864 303.445739 
L 194.48963 302.26176 
L 193.3056 301.074114 
L 192.724975 300.48768 
L 190.992919 298.7136 
L 190.9248 298.64283 
L 189.285232 296.93952 
L 188.544 296.15826 
L 187.595337 295.16544 
L 186.1632 293.644452 
L 185.921457 293.39136 
L 184.252042 291.61728 
L 183.7824 291.110568 
L 182.581882 289.8432 
L 181.4016 288.57781 
L 180.912831 288.06912 
L 179.234776 286.29504 
L 179.0208 286.065188 
L 177.527417 284.52096 
L 176.64 283.588297 
L 175.80065 282.74688 
L 174.2592 281.175853 
L 174.048195 280.9728 
L 172.235382 279.19872 
L 171.8784 278.843335 
L 170.35178 277.42464 
L 169.4976 276.61686 
L 168.388429 275.65056 
L 167.1168 274.522828 
L 166.313202 273.87648 
L 164.736 272.584673 
L 164.074259 272.1024 
L 162.3552 270.826156 
L 161.583118 270.32832 
L 159.9744 269.271254 
L 158.676805 268.55424 
L 157.5936 267.944051 
L 155.2128 266.866943 
L 154.955932 266.78016 
L 152.832 266.04833 
L 150.4512 265.512497 
L 148.0704 265.265735 
L 145.6896 265.310423 
L 143.3088 265.646678 
L 140.928 266.272338 
L 139.600051 266.78016 
L 138.5472 267.175289 
L 136.1664 268.341537 
L 135.812274 268.55424 
L 133.7856 269.749262 
L 132.951115 270.32832 
L 131.4048 271.382018 
L 130.479515 272.1024 
L 129.024 273.215542 
L 128.250339 273.87648 
L 126.6432 275.225556 
L 126.181722 275.65056 
L 124.2624 277.387897 
L 124.224847 277.42464 
L 122.380417 279.19872 
L 121.8816 279.670551 
L 120.591614 280.9728 
L 119.5008 282.055987 
L 118.841614 282.74688 
L 117.12124 284.52096 
L 117.12 284.522218 
L 115.448373 286.29504 
L 114.7392 287.035388 
L 113.783125 288.06912 
L 112.3584 289.585814 
L 112.123001 289.8432 
L 110.475361 291.61728 
L 109.9776 292.145202 
L 108.824612 293.39136 
L 107.5968 294.698757 
L 107.163493 295.16544 
L 105.491861 296.93952 
L 105.216 297.22807 
L 103.801648 298.7136 
L 102.8352 299.714247 
L 102.085964 300.48768 
L 100.4544 302.148267 
L 100.34176 302.26176 
L 98.556233 304.03584 
L 98.0736 304.508811 
L 96.722768 305.80992 
L 95.6928 306.788543 
L 94.834725 307.584 
" style="fill:none;stroke:#35b779;stroke-width:1.5;"/>
    <path clip-path="url(#p2a96ef0c2f)" d="M 378.603683 307.584 
L 376.695887 305.80992 
L 376.6272 305.745187 
L 374.851231 304.03584 
L 374.2464 303.445739 
L 373.04963 302.26176 
L 371.8656 301.074114 
L 371.284975 300.48768 
L 369.552919 298.7136 
L 369.4848 298.64283 
L 367.845232 296.93952 
L 367.104 296.15826 
L 366.155337 295.16544 
L 364.7232 293.644452 
L 364.481457 293.39136 
L 362.812042 291.61728 
L 362.3424 291.110568 
L 361.141882 289.8432 
L 359.9616 288.57781 
L 359.472831 288.06912 
L 357.794776 286.29504 
L 357.5808 286.065188 
L 356.087417 284.52096 
L 355.2 283.588297 
L 354.36065 282.74688 
L 352.8192 281.175853 
L 352.608195 280.9728 
L 350.795382 279.19872 
L 350.4384 278.843335 
L 348.91178 277.42464 
L 348.0576 276.61686 
L 346.948429 275.65056 
L 345.6768 274.522828 
L 344.873202 273.87648 
L 343.296 272.584673 
L 342.634259 272.1024 
L 340.9152 270.826156 
L 340.143118 270.32832 
L 338.5344 269.271254 
L 337.236805 268.55424 
L 336.1536 267.944051 
L 333.7728 266.866943 
L 333.515932 266.78016 
L 331.392 266.04833 
L 329.0112 265.512497 
L 326.6304 265.265735 
L 324.2496 265.310423 
L 321.8688 265.646678 
L 319.488 266.272338 
L 318.160051 266.78016 
L 317.1072 267.175289 
L 314.7264 268.341537 
L 314.372274 268.55424 
L 312.3456 269.749262 
L 311.511115 270.32832 
L 309.9648 271.382018 
L 309.039515 272.1024 
L 307.584 273.215542 
L 306.810339 273.87648 
L 305.2032 275.225556 
L 304.741722 275.65056 
L 302.8224 277.387897 
L 302.784847 277.42464 
L 300.940417 279.19872 
L 300.4416 279.670551 
L 299.151614 280.9728 
L 298.0608 282.055987 
L 297.401614 282.74688 
L 295.68124 284.52096 
L 295.68 284.522218 
L 294.008373 286.29504 
L 293.2992 287.035388 
L 292.343125 288.06912 
L 290.9184 289.585814 
L 290.683001 289.8432 
L 289.035361 291.61728 
L 288.5376 292.145202 
L 287.384612 293.39136 
L 286.1568 294.698757 
L 285.723493 295.16544 
L 284.051861 296.93952 
L 283.776 297.22807 
L 282.361648 298.7136 
L 281.3952 299.714247 
L 280.645964 300.48768 
L 279.0144 302.148267 
L 278.90176 302.26176 
L 277.116233 304.03584 
L 276.6336 304.508811 
L 275.282768 305.80992 
L 274.2528 306.788543 
L 273.394725 307.584 
" style="fill:none;stroke:#35b779;stroke-width:1.5;"/>
    <path clip-path="url(#p2a96ef0c2f)" d="M 93.716317 41.472 
L 95.624113 43.24608 
L 95.6928 43.310813 
L 97.468769 45.02016 
L 98.0736 45.610261 
L 99.27037 46.79424 
L 100.4544 47.981886 
L 101.035025 48.56832 
L 102.767081 50.3424 
L 102.8352 50.41317 
L 104.474768 52.11648 
L 105.216 52.89774 
L 106.164663 53.89056 
L 107.5968 55.411548 
L 107.838543 55.66464 
L 109.507958 57.43872 
L 109.9776 57.945432 
L 111.178118 59.2128 
L 112.3584 60.47819 
L 112.847169 60.98688 
L 114.525224 62.76096 
L 114.7392 62.990812 
L 116.232583 64.53504 
L 117.12 65.467703 
L 117.95935 66.30912 
L 119.5008 67.880147 
L 119.711805 68.0832 
L 121.524618 69.85728 
L 121.8816 70.212665 
L 123.40822 71.63136 
L 124.2624 72.43914 
L 125.371571 73.40544 
L 126.6432 74.533172 
L 127.446798 75.17952 
L 129.024 76.471327 
L 129.685741 76.9536 
L 131.4048 78.229844 
L 132.176882 78.72768 
L 133.7856 79.784746 
L 135.083195 80.50176 
L 136.1664 81.111949 
L 138.5472 82.189057 
L 138.804068 82.27584 
L 140.928 83.00767 
L 143.3088 83.543503 
L 145.6896 83.790265 
L 148.0704 83.745577 
L 150.4512 83.409322 
L 152.832 82.783662 
L 154.159949 82.27584 
L 155.2128 81.880711 
L 157.5936 80.714463 
L 157.947726 80.50176 
L 159.9744 79.306738 
L 160.808885 78.72768 
L 162.3552 77.673982 
L 163.280485 76.9536 
L 164.736 75.840458 
L 165.509661 75.17952 
L 167.1168 73.830444 
L 167.578278 73.40544 
L 169.4976 71.668103 
L 169.535153 71.63136 
L 171.379583 69.85728 
L 171.8784 69.385449 
L 173.168386 68.0832 
L 174.2592 67.000013 
L 174.918386 66.30912 
L 176.63876 64.53504 
L 176.64 64.533782 
L 178.311627 62.76096 
L 179.0208 62.020612 
L 179.976875 60.98688 
L 181.4016 59.470186 
L 181.636999 59.2128 
L 183.284639 57.43872 
L 183.7824 56.910798 
L 184.935388 55.66464 
L 186.1632 54.357243 
L 186.596507 53.89056 
L 188.268139 52.11648 
L 188.544 51.82793 
L 189.958352 50.3424 
L 190.9248 49.341753 
L 191.674036 48.56832 
L 193.3056 46.907733 
L 193.41824 46.79424 
L 195.203767 45.02016 
L 195.6864 44.547189 
L 197.037232 43.24608 
L 198.0672 42.267457 
L 198.925275 41.472 
" style="fill:none;stroke:#35b779;stroke-width:1.5;"/>
    <path clip-path="url(#p2a96ef0c2f)" d="M 272.276317 41.472 
L 274.184113 43.24608 
L 274.2528 43.310813 
L 276.028769 45.02016 
L 276.6336 45.610261 
L 277.83037 46.79424 
L 279.0144 47.981886 
L 279.595025 48.56832 
L 281.327081 50.3424 
L 281.3952 50.41317 
L 283.034768 52.11648 
L 283.776 52.89774 
L 284.724663 53.89056 
L 286.1568 55.411548 
L 286.398543 55.66464 
L 288.067958 57.43872 
L 288.5376 57.945432 
L 289.738118 59.2128 
L 290.9184 60.47819 
L 291.407169 60.98688 
L 293.085224 62.76096 
L 293.2992 62.990812 
L 294.792583 64.53504 
L 295.68 65.467703 
L 296.51935 66.30912 
L 298.0608 67.880147 
L 298.271805 68.0832 
L 300.084618 69.85728 
L 300.4416 70.212665 
L 301.96822 71.63136 
L 302.8224 72.43914 
L 303.931571 73.40544 
L 305.2032 74.533172 
L 306.006798 75.17952 
L 307.584 76.471327 
L 308.245741 76.9536 
L 309.9648 78.229844 
L 310.736882 78.72768 
L 312.3456 79.784746 
L 313.643195 80.50176 
L 314.7264 81.111949 
L 317.1072 82.189057 
L 317.364068 82.27584 
L 319.488 83.00767 
L 321.8688 83.543503 
L 324.2496 83.790265 
L 326.6304 83.745577 
L 329.0112 83.409322 
L 331.392 82.783662 
L 332.719949 82.27584 
L 333.7728 81.880711 
L 336.1536 80.714463 
L 336.507726 80.50176 
L 338.5344 79.306738 
L 339.368885 78.72768 
L 340.9152 77.673982 
L 341.840485 76.9536 
L 343.296 75.840458 
L 344.069661 75.17952 
L 345.6768 73.830444 
L 346.138278 73.40544 
L 348.0576 71.668103 
L 348.095153 71.63136 
L 349.939583 69.85728 
L 350.4384 69.385449 
L 351.728386 68.0832 
L 352.8192 67.000013 
L 353.478386 66.30912 
L 355.19876 64.53504 
L 355.2 64.533782 
L 356.871627 62.76096 
L 357.5808 62.020612 
L 358.536875 60.98688 
L 359.9616 59.470186 
L 360.196999 59.2128 
L 361.844639 57.43872 
L 362.3424 56.910798 
L 363.495388 55.66464 
L 364.7232 54.357243 
L 365.156507 53.89056 
L 366.828139 52.11648 
L 367.104 51.82793 
L 368.518352 50.3424 
L 369.4848 49.341753 
L 370.234036 48.56832 
L 371.8656 46.907733 
L 371.97824 46.79424 
L 373.763767 45.02016 
L 374.2464 44.547189 
L 375.597232 43.24608 
L 376.6272 42.267457 
L 377.485275 41.472 
" style="fill:none;stroke:#35b779;stroke-width:1.5;"/>
   </g>
   <g id="LineCollection_6">
    <path clip-path="url(#p2a96ef0c2f)" d="M 181.974507 307.584 
L 181.4016 307.052361 
L 180.022045 305.80992 
L 179.0208 304.895845 
L 178.041921 304.03584 
L 176.64 302.787041 
L 176.021573 302.26176 
L 174.2592 300.743685 
L 173.944321 300.48768 
L 171.8784 298.78392 
L 171.787016 298.7136 
L 169.514667 296.93952 
L 169.4976 296.925998 
L 167.1168 295.189146 
L 167.080949 295.16544 
L 164.736 293.591514 
L 164.40061 293.39136 
L 162.3552 292.152001 
L 161.338109 291.61728 
L 159.9744 290.889164 
L 157.641684 289.8432 
L 157.5936 289.821298 
L 155.2128 288.952422 
L 152.832 288.305698 
L 151.4884 288.06912 
L 150.4512 287.883546 
L 148.0704 287.692307 
L 145.6896 287.737506 
L 143.3088 288.019108 
L 143.07802 288.06912 
L 140.928 288.527999 
L 138.5472 289.263334 
L 137.10458 289.8432 
L 136.1664 290.214676 
L 133.7856 291.368463 
L 133.348741 291.61728 
L 131.4048 292.708153 
L 130.338249 293.39136 
L 129.024 294.220994 
L 127.683717 295.16544 
L 126.6432 295.888131 
L 125.262661 296.93952 
L 124.2624 297.690506 
L 123.001112 298.7136 
L 121.8816 299.608988 
L 120.851794 300.48768 
L 119.5008 301.624499 
L 118.783046 302.26176 
L 117.12 303.71814 
L 116.772763 304.03584 
L 114.807208 305.80992 
L 114.7392 305.870485 
L 112.880877 307.584 
" style="fill:none;stroke:#90d743;stroke-width:1.5;"/>
    <path clip-path="url(#p2a96ef0c2f)" d="M 360.534507 307.584 
L 359.9616 307.052361 
L 358.582045 305.80992 
L 357.5808 304.895845 
L 356.601921 304.03584 
L 355.2 302.787041 
L 354.581573 302.26176 
L 352.8192 300.743685 
L 352.504321 300.48768 
L 350.4384 298.78392 
L 350.347016 298.7136 
L 348.074667 296.93952 
L 348.0576 296.925998 
L 345.6768 295.189146 
L 345.640949 295.16544 
L 343.296 293.591514 
L 342.96061 293.39136 
L 340.9152 292.152001 
L 339.898109 291.61728 
L 338.5344 290.889164 
L 336.201684 289.8432 
L 336.1536 289.821298 
L 333.7728 288.952422 
L 331.392 288.305698 
L 330.0484 288.06912 
L 329.0112 287.883546 
L 326.6304 287.692307 
L 324.2496 287.737506 
L 321.8688 288.019108 
L 321.63802 288.06912 
L 319.488 288.527999 
L 317.1072 289.263334 
L 315.66458 289.8432 
L 314.7264 290.214676 
L 312.3456 291.368463 
L 311.908741 291.61728 
L 309.9648 292.708153 
L 308.898249 293.39136 
L 307.584 294.220994 
L 306.243717 295.16544 
L 305.2032 295.888131 
L 303.822661 296.93952 
L 302.8224 297.690506 
L 301.561112 298.7136 
L 300.4416 299.608988 
L 299.411794 300.48768 
L 298.0608 301.624499 
L 297.343046 302.26176 
L 295.68 303.71814 
L 295.332763 304.03584 
L 293.367208 305.80992 
L 293.2992 305.870485 
L 291.440877 307.584 
" style="fill:none;stroke:#90d743;stroke-width:1.5;"/>
    <path clip-path="url(#p2a96ef0c2f)" d="M 111.785493 41.472 
L 112.3584 42.003639 
L 113.737955 43.24608 
L 114.7392 44.160155 
L 115.718079 45.02016 
L 117.12 46.268959 
L 117.738427 46.79424 
L 119.5008 48.312315 
L 119.815679 48.56832 
L 121.8816 50.27208 
L 121.972984 50.3424 
L 124.245333 52.11648 
L 124.2624 52.130002 
L 126.6432 53.866854 
L 126.679051 53.89056 
L 129.024 55.464486 
L 129.35939 55.66464 
L 131.4048 56.903999 
L 132.421891 57.43872 
L 133.7856 58.166836 
L 136.118316 59.2128 
L 136.1664 59.234702 
L 138.5472 60.103578 
L 140.928 60.750302 
L 142.2716 60.98688 
L 143.3088 61.172454 
L 145.6896 61.363693 
L 148.0704 61.318494 
L 150.4512 61.036892 
L 150.68198 60.98688 
L 152.832 60.528001 
L 155.2128 59.792666 
L 156.65542 59.2128 
L 157.5936 58.841324 
L 159.9744 57.687537 
L 160.411259 57.43872 
L 162.3552 56.347847 
L 163.421751 55.66464 
L 164.736 54.835006 
L 166.076283 53.89056 
L 167.1168 53.167869 
L 168.497339 52.11648 
L 169.4976 51.365494 
L 170.758888 50.3424 
L 171.8784 49.447012 
L 172.908206 48.56832 
L 174.2592 47.431501 
L 174.976954 46.79424 
L 176.64 45.33786 
L 176.987237 45.02016 
L 178.952792 43.24608 
L 179.0208 43.185515 
L 180.879123 41.472 
" style="fill:none;stroke:#90d743;stroke-width:1.5;"/>
    <path clip-path="url(#p2a96ef0c2f)" d="M 290.345493 41.472 
L 290.9184 42.003639 
L 292.297955 43.24608 
L 293.2992 44.160155 
L 294.278079 45.02016 
L 295.68 46.268959 
L 296.298427 46.79424 
L 298.0608 48.312315 
L 298.375679 48.56832 
L 300.4416 50.27208 
L 300.532984 50.3424 
L 302.805333 52.11648 
L 302.8224 52.130002 
L 305.2032 53.866854 
L 305.239051 53.89056 
L 307.584 55.464486 
L 307.91939 55.66464 
L 309.9648 56.903999 
L 310.981891 57.43872 
L 312.3456 58.166836 
L 314.678316 59.2128 
L 314.7264 59.234702 
L 317.1072 60.103578 
L 319.488 60.750302 
L 320.8316 60.98688 
L 321.8688 61.172454 
L 324.2496 61.363693 
L 326.6304 61.318494 
L 329.0112 61.036892 
L 329.24198 60.98688 
L 331.392 60.528001 
L 333.7728 59.792666 
L 335.21542 59.2128 
L 336.1536 58.841324 
L 338.5344 57.687537 
L 338.971259 57.43872 
L 340.9152 56.347847 
L 341.981751 55.66464 
L 343.296 54.835006 
L 344.636283 53.89056 
L 345.6768 53.167869 
L 347.057339 52.11648 
L 348.0576 51.365494 
L 349.318888 50.3424 
L 350.4384 49.447012 
L 351.468206 48.56832 
L 352.8192 47.431501 
L 353.536954 46.79424 
L 355.2 45.33786 
L 355.547237 45.02016 
L 357.512792 43.24608 
L 357.5808 43.185515 
L 359.439123 41.472 
" style="fill:none;stroke:#90d743;stroke-width:1.5;"/>
   </g>
   <g id="LineCollection_7">
    <path clip-path="url(#p2a96ef0c2f)" d="M 155.718615 307.584 
L 155.2128 307.425363 
L 152.832 306.871459 
L 150.4512 306.51466 
L 148.0704 306.357971 
L 145.6896 306.402849 
L 143.3088 306.649185 
L 140.928 307.095297 
L 139.117361 307.584 
" style="fill:none;stroke:#fde725;stroke-width:1.5;"/>
    <path clip-path="url(#p2a96ef0c2f)" d="M 334.278615 307.584 
L 333.7728 307.425363 
L 331.392 306.871459 
L 329.0112 306.51466 
L 326.6304 306.357971 
L 324.2496 306.402849 
L 321.8688 306.649185 
L 319.488 307.095297 
L 317.677361 307.584 
" style="fill:none;stroke:#fde725;stroke-width:1.5;"/>
    <path clip-path="url(#p2a96ef0c2f)" d="M 138.041385 41.472 
L 138.5472 41.630637 
L 140.928 42.184541 
L 143.3088 42.54134 
L 145.6896 42.698029 
L 148.0704 42.653151 
L 150.4512 42.406815 
L 152.832 41.960703 
L 154.642639 41.472 
" style="fill:none;stroke:#fde725;stroke-width:1.5;"/>
    <path clip-path="url(#p2a96ef0c2f)" d="M 316.601385 41.472 
L 317.1072 41.630637 
L 319.488 42.184541 
L 321.8688 42.54134 
L 324.2496 42.698029 
L 326.6304 42.653151 
L 329.0112 42.406815 
L 331.392 41.960703 
L 333.202639 41.472 
" style="fill:none;stroke:#fde725;stroke-width:1.5;"/>
   </g>
   <g id="patch_3">
    <path d="M 57.6 307.584 
L 57.6 41.472 
" style="fill:none;stroke:#000000;stroke-linecap:square;stroke-linejoin:miter;stroke-width:0.8;"/>
   </g>
   <g id="patch_4">
    <path d="M 414.72 307.584 
L 414.72 41.472 
" style="fill:none;stroke:#000000;stroke-linecap:square;stroke-linejoin:miter;stroke-width:0.8;"/>
   </g>
   <g id="patch_5">
    <path d="M 57.6 307.584 
L 414.72 307.584 
" style="fill:none;stroke:#000000;stroke-linecap:square;stroke-linejoin:miter;stroke-width:0.8;"/>
   </g>
   <g id="patch_6">
    <path d="M 57.6 41.472 
L 414.72 41.472 
" style="fill:none;stroke:#000000;stroke-linecap:square;stroke-linejoin:miter;stroke-width:0.8;"/>
   </g>
   <g id="text_17">
    <!-- V -->
    <defs>
     <path d="M 28.609375 0 
L 0.78125 72.90625 
L 11.078125 72.90625 
L 34.1875 11.53125 
L 57.328125 72.90625 
L 67.578125 72.90625 
L 39.796875 0 
z
" id="DejaVuSans-56"/>
    </defs>
    <g transform="translate(232.055625 35.472)scale(0.12 -0.12)">
     <use xlink:href="#DejaVuSans-56"/>
    </g>
   </g>
  </g>
 </g>
 <defs>
  <clipPath id="p2a96ef0c2f">
   <rect height="266.112" width="357.12" x="57.6" y="41.472"/>
  </clipPath>
 </defs>
</svg>
